<svg width="782" height="825" viewBox="0 0 782 825" fill="none" xmlns="http://www.w3.org/2000/svg">
<path d="M223.477 393.86C215.841 393.86 209.062 392.571 203.14 389.993C197.27 387.362 192.62 383.416 189.192 378.154C185.815 372.84 184.127 366.185 184.127 358.187C184.127 351.452 185.296 345.77 187.633 341.14C189.971 336.51 193.192 332.748 197.296 329.854C201.399 326.96 206.127 324.777 211.477 323.304C216.828 321.778 222.542 320.752 228.62 320.226C235.425 319.594 240.906 318.937 245.061 318.253C249.217 317.516 252.23 316.49 254.1 315.175C256.022 313.807 256.983 311.886 256.983 309.413V309.019C256.983 304.967 255.607 301.837 252.854 299.627C250.1 297.417 246.386 296.312 241.711 296.312C236.672 296.312 232.62 297.417 229.555 299.627C226.49 301.837 224.542 304.888 223.711 308.782L188.568 307.519C189.607 300.153 192.283 293.576 196.594 287.789C200.958 281.948 206.932 277.371 214.516 274.056C222.152 270.689 231.321 269.005 242.022 269.005C249.659 269.005 256.698 269.926 263.139 271.767C269.581 273.556 275.191 276.187 279.97 279.66C284.749 283.08 288.438 287.289 291.035 292.287C293.684 297.286 295.009 302.994 295.009 309.413V391.808H259.165V374.919H258.23C256.1 379.023 253.373 382.495 250.048 385.336C246.776 388.178 242.906 390.308 238.438 391.729C234.023 393.15 229.036 393.86 223.477 393.86ZM235.243 368.605C239.347 368.605 243.035 367.763 246.308 366.079C249.633 364.396 252.282 362.081 254.256 359.134C256.23 356.135 257.217 352.663 257.217 348.716V337.194C256.126 337.773 254.802 338.299 253.243 338.772C251.737 339.246 250.074 339.693 248.256 340.114C246.438 340.535 244.568 340.903 242.646 341.219C240.724 341.535 238.88 341.824 237.113 342.087C233.529 342.666 230.464 343.56 227.919 344.77C225.425 345.981 223.503 347.559 222.152 349.506C220.854 351.4 220.204 353.662 220.204 356.293C220.204 360.292 221.607 363.343 224.412 365.448C227.269 367.553 230.88 368.605 235.243 368.605Z" fill="black"/>
<path d="M360.798 109.248C354.116 109.248 348.184 108.12 343.002 105.864C337.866 103.562 333.798 100.109 330.798 95.5056C327.843 90.8558 326.366 85.032 326.366 78.0342C326.366 72.1414 327.389 67.1693 329.434 63.118C331.48 59.0666 334.298 55.7749 337.889 53.2428C341.48 50.7107 345.616 48.8002 350.298 47.5111C354.98 46.176 359.98 45.2783 365.298 44.8179C371.252 44.2654 376.048 43.69 379.684 43.0915C383.32 42.4469 385.957 41.5492 387.593 40.3983C389.275 39.2013 390.116 37.5209 390.116 35.3571V35.0118C390.116 31.4669 388.911 28.7276 386.502 26.7941C384.093 24.8605 380.843 23.8937 376.752 23.8937C372.343 23.8937 368.798 24.8605 366.116 26.7941C363.434 28.7276 361.73 31.3978 361.002 34.8046L330.253 33.6997C331.162 27.2544 333.503 21.4997 337.275 16.4355C341.093 11.3253 346.321 7.32003 352.957 4.41963C359.639 1.47321 367.661 0 377.025 0C383.707 0 389.866 0.805661 395.502 2.41698C401.138 3.98227 406.047 6.28417 410.229 9.32267C414.411 12.3151 417.638 15.9982 419.911 20.3718C422.229 24.7454 423.388 29.7405 423.388 35.3571V107.452H392.025V92.6743H391.207C389.343 96.2653 386.957 99.3037 384.048 101.79C381.184 104.276 377.798 106.14 373.889 107.383C370.025 108.626 365.661 109.248 360.798 109.248ZM371.093 87.1497C374.684 87.1497 377.911 86.4131 380.775 84.9399C383.684 83.4667 386.002 81.441 387.729 78.8629C389.457 76.2388 390.32 73.2003 390.32 69.7474V59.6651C389.366 60.1715 388.207 60.6319 386.843 61.0463C385.525 61.4606 384.07 61.8519 382.479 62.2202C380.888 62.5885 379.252 62.9108 377.57 63.187C375.889 63.4632 374.275 63.7165 372.729 63.9466C369.593 64.4531 366.911 65.2357 364.684 66.2946C362.502 67.3535 360.82 68.7346 359.639 70.438C358.502 72.0953 357.934 74.075 357.934 76.3769C357.934 79.8758 359.161 82.546 361.616 84.3875C364.116 86.229 367.275 87.1497 371.093 87.1497Z" fill="black"/>
<path d="M310.718 493.556L287.911 511.931L258.176 474.069L187.315 531.158L164.371 501.943L258.04 426.479L310.718 493.556Z" fill="black"/>
<path d="M429.159 691.729L365.783 678.67L367.569 669.776C366.784 666.822 364.669 664.158 361.223 661.783C357.726 659.398 353.526 657.217 348.622 655.24C343.677 653.201 338.477 651.378 333.022 649.77C327.526 648.101 322.35 646.551 317.495 645.121L282.396 634.989L301.721 538.781L390.219 557.017L393.948 538.456L457.324 551.516L450.116 587.401L415.526 580.273L401.964 647.789L436.554 654.917L429.159 691.729ZM374.964 632.963L383.135 592.283L322.431 579.774L316.528 609.163L324.269 611.402C336.748 614.725 347.108 618.042 355.35 621.351C363.591 624.66 370.129 628.53 374.964 632.963Z" fill="black"/>
<path d="M631.525 487.918L637.44 430.915L645.238 431.745C647.712 430.805 649.826 428.715 651.579 425.476C653.336 422.191 654.86 418.303 656.149 413.811C657.487 409.278 658.619 404.538 659.544 399.591C660.518 394.603 661.417 389.907 662.24 385.504L668.009 353.691L752.362 362.671L744.102 442.269L760.375 444.002L754.46 501.005L722.997 497.656L726.226 466.544L667.03 460.243L663.801 491.354L631.525 487.918ZM677.514 435.181L713.181 438.978L718.847 384.378L693.08 381.635L691.804 388.652C689.993 399.939 688.01 409.357 685.855 416.904C683.701 424.452 680.921 430.544 677.514 435.181Z" fill="black"/>
<path d="M513.386 524.652C522.161 515.608 531.494 509.554 541.386 506.49C551.278 503.501 561.215 503.506 571.196 506.506C581.177 509.58 590.707 515.635 599.784 524.67C608.602 533.447 614.598 542.881 617.771 552.973C620.98 563.102 621.306 573.2 618.748 583.269C616.227 593.374 610.743 602.779 602.295 611.486C596.324 617.64 589.918 622.329 583.076 625.552C576.235 628.775 569.159 630.4 561.849 630.427C554.539 630.455 547.16 628.79 539.711 625.433C532.299 622.113 525.091 616.968 518.089 609.998L511.308 603.249L584.22 528.1L600.004 543.81L551.942 593.346C554.869 596.185 558.117 598.054 561.688 598.953C565.259 599.851 568.822 599.746 572.375 598.635C575.929 597.599 579.181 595.561 582.13 592.522C585.116 589.444 587.107 586.004 588.103 582.2C589.135 578.433 589.177 574.675 588.226 570.926C587.312 567.213 585.428 563.863 582.574 560.874L566.512 544.888C563.029 541.421 559.299 539.073 555.321 537.843C551.38 536.65 547.45 536.61 543.529 537.724C539.608 538.838 535.936 541.158 532.513 544.686C530.147 547.125 528.332 549.671 527.069 552.324C525.806 554.977 525.131 557.661 525.045 560.378C524.958 563.095 525.513 565.75 526.711 568.344L501.466 592.9C496.891 586.28 494.258 579.123 493.567 571.427C492.877 563.806 494.169 555.982 497.442 547.954C500.753 539.962 506.067 532.195 513.386 524.652Z" fill="black"/>
<path d="M691.838 288.378C683.81 280.829 678.351 272.711 675.459 264.024C672.632 255.335 672.39 246.532 674.733 237.616C677.14 228.698 682.132 220.105 689.709 211.839C697.07 203.81 705.068 198.264 713.705 195.203C722.372 192.109 731.084 191.569 739.842 193.586C748.631 195.568 756.89 200.193 764.618 207.461C770.081 212.598 774.288 218.157 777.241 224.137C780.194 230.118 781.773 236.346 781.978 242.821C782.183 249.296 780.929 255.875 778.215 262.557C775.531 269.206 771.267 275.718 765.422 282.095L759.762 288.269L693.058 225.542L706.233 211.17L750.203 252.518C752.582 249.855 754.115 246.93 754.802 243.745C755.49 240.559 755.31 237.406 754.263 234.285C753.28 231.162 751.439 228.332 748.741 225.795C746.01 223.226 742.989 221.548 739.68 220.76C736.401 219.939 733.155 219.996 729.941 220.931C726.758 221.832 723.911 223.585 721.401 226.187L707.994 240.813C705.087 243.984 703.152 247.347 702.188 250.902C701.256 254.422 701.319 257.905 702.378 261.351C703.437 264.797 705.532 267.992 708.664 270.937C710.829 272.973 713.072 274.517 715.395 275.57C717.717 276.623 720.052 277.154 722.4 277.164C724.748 277.173 727.028 276.615 729.238 275.49L751.069 297.245C745.467 301.462 739.351 303.972 732.723 304.775C726.159 305.576 719.37 304.625 712.356 301.924C705.373 299.19 698.533 294.675 691.838 288.378Z" fill="black"/>
<path d="M384.705 268.217L314.011 230.089L313.691 192.997L433.374 191.939L433.689 228.479L363.095 229.103L434.022 267.149L434.342 304.32L314.66 305.378L314.345 268.839L384.705 268.217Z" fill="black"/>
<path d="M623.296 283.34L626.246 310.716C622.398 312.281 618.423 313.152 614.32 313.328C610.266 313.52 605.504 313.067 600.032 311.97C594.56 310.874 587.747 309.169 579.593 306.855C570.391 304.237 562.586 303.366 556.177 304.242C549.783 305.067 544.311 307.884 539.761 312.693C535.275 317.465 531.234 324.392 527.636 333.474L528.609 333.756C533.896 327.683 540.157 323.508 547.395 321.232C554.633 318.955 563.07 319.216 572.708 322.015C582.745 324.93 590.86 329.668 597.055 336.229C603.264 342.74 607.245 350.628 608.999 359.895C610.767 369.112 610.083 379.258 606.947 390.334C603.625 402.068 598.411 411.61 591.304 418.96C584.198 426.311 575.652 431.109 565.667 433.354C555.682 435.599 544.673 434.974 532.638 431.479C520.604 427.984 510.944 422.496 503.658 415.017C496.423 407.551 491.818 398.332 489.845 387.359C487.936 376.35 488.972 363.816 492.952 349.755L495.358 341.259C503.52 312.43 515.269 292.881 530.606 282.611C545.942 272.342 564.661 270.362 586.761 276.671C592.318 278.23 597.336 279.687 601.816 281.043C606.36 282.363 610.395 283.288 613.919 283.819C617.458 284.3 620.583 284.14 623.296 283.34ZM540.788 403.55C544.983 404.768 548.925 404.682 552.616 403.291C556.306 401.899 559.577 399.319 562.427 395.549C565.278 391.779 567.548 386.91 569.238 380.942C570.927 374.974 571.518 369.645 571.008 364.954C570.549 360.277 569.104 356.409 566.674 353.35C564.258 350.24 560.952 348.076 556.758 346.857C553.562 345.929 550.487 345.72 547.532 346.231C544.592 346.69 541.879 347.873 539.394 349.779C536.923 351.634 534.72 354.168 532.783 357.382C530.846 360.597 529.241 364.454 527.966 368.956C525.446 377.857 525.318 385.373 527.581 391.504C529.844 397.635 534.247 401.65 540.788 403.55Z" fill="black"/>
<path d="M490.07 107.536L513.86 107.65C514.822 111.193 515.176 114.779 514.921 118.41C514.684 121.998 513.823 126.147 512.34 130.856C510.857 135.566 508.718 141.396 505.925 148.346C502.767 156.19 501.246 162.977 501.362 168.707C501.437 174.419 503.313 179.516 506.99 183.999C510.642 188.421 516.188 192.666 523.626 196.734L523.966 195.905C519.276 190.648 516.313 184.721 515.076 178.123C513.838 171.524 514.898 164.12 518.255 155.911C521.752 147.362 526.622 140.685 532.868 135.88C539.071 131.058 546.237 128.334 554.365 127.707C562.451 127.063 571.092 128.671 580.289 132.529C590.031 136.616 597.705 142.153 603.311 149.139C608.916 156.125 612.188 164.125 613.126 173.139C614.064 182.154 612.437 191.786 608.245 202.037C604.053 212.287 598.386 220.25 591.244 225.924C584.119 231.556 575.75 234.697 566.136 235.348C556.497 235.938 545.841 233.785 534.167 228.887L527.111 225.927C503.175 215.885 487.559 203.603 480.263 189.081C472.967 174.559 473.122 157.88 480.726 139.045C482.615 134.306 484.363 130.032 485.97 126.221C487.553 122.351 488.747 118.89 489.552 115.839C490.315 112.771 490.488 110.003 490.07 107.536ZM585.08 192.094C586.541 188.521 586.857 185.041 586.028 181.653C585.2 178.266 583.309 175.131 580.355 172.247C577.402 169.364 573.447 166.882 568.492 164.804C563.537 162.725 559.021 161.677 554.944 161.661C550.884 161.602 547.421 162.491 544.554 164.328C541.645 166.148 539.46 168.844 537.999 172.417C536.886 175.139 536.402 177.826 536.547 180.478C536.651 183.113 537.397 185.618 538.787 187.995C540.134 190.355 542.091 192.546 544.658 194.57C547.226 196.594 550.378 198.389 554.115 199.957C561.506 203.058 567.945 203.916 573.432 202.53C578.918 201.144 582.801 197.666 585.08 192.094Z" fill="black"/>
<path d="M760.187 523.931L764.412 547.644C761.147 549.248 757.73 550.253 754.159 550.661C750.633 551.079 746.448 550.978 741.606 550.359C736.764 549.74 730.714 548.673 723.458 547.158C715.267 545.442 708.402 545.164 702.861 546.324C697.329 547.44 692.722 550.237 689.041 554.716C685.413 559.159 682.303 565.455 679.71 573.604L680.577 573.791C684.825 568.163 690.039 564.132 696.219 561.697C702.399 559.262 709.78 558.969 718.361 560.816C727.297 562.74 734.667 566.374 740.469 571.718C746.281 577.017 750.232 583.657 752.321 591.637C754.42 599.572 754.435 608.471 752.365 618.333C750.172 628.78 746.196 637.432 740.436 644.287C734.675 651.142 727.505 655.859 718.925 658.436C710.345 661.013 700.697 661.148 689.982 658.841C679.267 656.534 670.505 652.341 663.695 646.263C656.929 640.194 652.354 632.431 649.971 622.976C647.641 613.484 647.789 602.479 650.417 589.96L652.004 582.395C657.391 556.727 666.469 538.937 679.237 529.025C692.005 519.113 708.224 516.227 727.895 520.368C732.839 521.385 737.308 522.347 741.3 523.254C745.346 524.125 748.923 524.683 752.031 524.929C755.149 525.129 757.868 524.797 760.187 523.931ZM695.413 633.959C699.148 634.763 702.584 634.444 705.721 633.001C708.859 631.559 711.558 629.104 713.819 625.637C716.08 622.17 717.768 617.78 718.883 612.466C719.998 607.153 720.192 602.464 719.465 598.401C718.782 594.348 717.288 591.061 714.982 588.54C712.686 585.975 709.67 584.29 705.936 583.486C703.09 582.874 700.393 582.882 697.845 583.51C695.306 584.093 693.01 585.293 690.956 587.11C688.911 588.881 687.14 591.23 685.643 594.155C684.146 597.081 682.977 600.547 682.136 604.555C680.473 612.481 680.814 619.049 683.159 624.261C685.504 629.472 689.589 632.705 695.413 633.959Z" fill="black"/>
<path d="M349.353 473.151L346.219 351.968L397.864 350.598C413.287 350.189 425.511 352.681 434.537 358.073C443.613 363.411 448.29 371.472 448.569 382.254C448.731 388.513 446.351 393.971 441.431 398.628C436.562 403.231 429.551 406.443 420.401 408.265C428.512 408.471 435.28 409.923 440.702 412.621C446.124 415.32 450.216 418.816 452.977 423.112C455.738 427.407 457.183 432.027 457.311 436.971C457.496 444.124 455.757 450.223 452.093 455.267C448.43 460.312 442.971 464.22 435.716 466.992C428.512 469.762 419.614 471.287 409.02 471.568L349.353 473.151ZM384.073 444.282L408.298 443.639C412.348 443.532 415.491 442.475 417.725 440.468C420.012 438.46 421.111 435.747 421.023 432.328C420.927 428.646 419.684 425.784 417.293 423.742C414.954 421.699 411.759 420.731 407.708 420.839L383.483 421.481L384.073 444.282ZM382.943 400.574L400.157 400.117C402.91 400.044 405.261 399.561 407.213 398.667C409.165 397.773 410.639 396.523 411.637 394.918C412.687 393.311 413.183 391.403 413.126 389.194C413.043 385.986 411.706 383.495 409.113 381.721C406.573 379.947 403.07 379.119 398.604 379.237L382.402 379.667L382.943 400.574Z" fill="black"/>
<path d="M226.692 138.138L293.723 117.426L316.579 140.175L243.175 215.831L220.66 193.42L263.956 148.795L196.831 169.703L173.926 146.905L247.329 71.25L269.845 93.6604L226.692 138.138Z" fill="black"/>
<path d="M605.135 700.117L636.903 699.556C651.309 699.301 662.662 702.531 670.961 709.245C679.259 715.913 683.531 725.092 683.778 736.783C683.864 744.379 682.091 751.018 678.461 756.699C674.876 762.334 669.656 766.755 662.801 769.961C655.991 773.12 647.791 774.785 638.202 774.954L586.869 775.862L585.042 669.807L616.605 669.249L617.987 749.48L637.757 749.131C642.12 749.054 645.692 747.909 648.472 745.695C651.253 743.482 652.636 740.672 652.623 737.265C652.516 733.675 651.034 730.778 648.177 728.572C645.32 726.366 641.711 725.302 637.348 725.379L605.58 725.941L605.135 700.117Z" fill="black"/>
<path d="M492.96 699.78L481.083 736.949L518.005 724.708L541.98 748.57L484.416 765.633L469.354 825L445.574 801.331L456.233 762.562L418.487 774.371L394.366 750.363L452.757 734.123L468.84 675.773L492.96 699.78Z" fill="black"/>
<path d="M73.4037 176.816L95.9195 199.227L40.5322 256.313L59.2549 274.948L114.642 217.862L137.158 240.272L81.7707 297.358L100.493 315.993L155.881 258.907L178.396 281.317L104.993 356.973L0 252.472L73.4037 176.816Z" fill="black"/>
<path d="M49.939 483.069C42.0609 475.228 36.8943 466.858 34.4391 457.959C32.0163 449.093 32.1329 440.237 34.7887 431.392C37.4765 422.513 42.5638 414.215 50.0507 406.499C57.5695 398.749 65.6719 393.452 74.3579 390.608C83.1082 387.764 91.8807 387.491 100.675 389.79C109.502 392.121 117.822 397.175 125.636 404.951C132.541 411.825 137.329 419.075 139.998 426.701C142.699 434.361 143.247 441.941 141.64 449.443C140.098 456.944 136.397 463.878 130.538 470.246L108.313 448.126C111.619 443.799 113.269 439.471 113.264 435.142C113.291 430.844 111.603 427.001 108.199 423.613C105.443 420.87 102.263 419.254 98.6589 418.765C95.0866 418.243 91.2355 418.929 87.1054 420.821C83.0397 422.712 78.8404 425.891 74.5075 430.357C70.1747 434.823 67.0782 439.163 65.2182 443.379C63.4224 447.595 62.7973 451.523 63.343 455.165C63.9205 458.773 65.5871 461.949 68.3428 464.692C70.5474 466.886 72.9545 468.346 75.5643 469.072C78.2065 469.83 80.9708 469.838 83.8572 469.096C86.7755 468.321 89.6708 466.749 92.5432 464.38L114.767 486.5C108.487 492.513 101.658 496.431 94.2814 498.254C86.9369 500.11 79.4449 499.785 71.8057 497.281C64.2307 494.776 56.9418 490.039 49.939 483.069Z" fill="black"/>
<path d="M123.733 701.008L78.3987 529.646L110.603 520.906L155.937 692.268L123.733 701.008ZM115.051 668.19C107.016 670.37 99.3207 671.076 91.9648 670.308C84.6088 669.54 77.8765 667.483 71.7677 664.136C65.6911 660.733 60.4608 656.171 56.0767 650.45C51.6926 644.729 48.4712 637.977 46.4125 630.195C44.3537 622.413 43.8105 614.934 44.7829 607.759C45.7435 600.54 48.0151 593.918 51.5977 587.894C55.2241 581.857 60.0389 576.666 66.0419 572.32C72.0332 567.93 79.0462 564.645 87.0808 562.464L92.4812 560.998L120.451 666.724L115.051 668.19ZM108.486 643.376L111.779 642.482L96.9383 586.384L93.6454 587.278C90.3964 588.16 87.621 589.675 85.3192 591.825C83.0614 593.963 81.3238 596.556 80.1064 599.603C78.9212 602.594 78.2766 605.938 78.1726 609.636C78.1008 613.278 78.6002 617.122 79.6707 621.169C81.0707 626.461 83.2135 631.003 86.0991 634.795C88.9729 638.543 92.3359 641.205 96.188 642.781C100.084 644.345 104.183 644.544 108.486 643.376ZM147.255 659.45L141.921 660.897L113.951 555.172L119.285 553.724C127.32 551.544 135.015 550.837 142.371 551.605C149.716 552.329 156.448 554.386 162.568 557.777C168.689 561.169 173.947 565.747 178.343 571.513C182.727 577.234 185.948 583.985 188.007 591.768C190.066 599.55 190.609 607.028 189.637 614.203C188.664 621.378 186.365 627.984 182.738 634.02C179.1 640.012 174.285 645.203 168.294 649.593C162.303 653.984 155.29 657.269 147.255 659.45ZM140.691 634.636C143.984 633.742 146.759 632.226 149.017 630.088C151.275 627.95 152.996 625.386 154.182 622.395C155.399 619.348 156.065 615.998 156.181 612.344C156.285 608.646 155.808 604.796 154.749 600.794C153.325 595.413 151.177 590.848 148.303 587.1C145.429 583.352 142.066 580.69 138.214 579.115C134.406 577.527 130.284 577.334 125.85 578.538L122.623 579.414L137.464 635.512L140.691 634.636Z" fill="black"/>
<path d="M271.299 735.182L197.895 810.838L175.525 788.573L248.929 712.917L271.299 735.182ZM228.666 756.167L210.793 774.588C208.892 773.986 206.487 772.852 203.58 771.185C200.737 769.517 197.86 767.622 194.949 765.499C192.071 763.408 189.659 761.395 187.714 759.458C176.237 748.035 169.391 736.865 167.175 725.946C165.024 715.026 168.823 704.542 178.572 694.495L204.091 668.192L226.315 690.312L200.796 716.614C198.279 719.209 196.725 721.631 196.134 723.883C195.575 726.167 196.046 728.637 197.547 731.293C199.081 733.981 201.761 737.229 205.587 741.037C208.504 743.941 211.806 746.582 215.49 748.958C219.239 751.334 223.631 753.737 228.666 756.167Z" fill="black"/>
<path d="M279.973 816.015L281.801 709.96L326.998 710.759C340.496 710.998 351.089 713.649 358.775 718.711C366.508 723.729 370.293 730.956 370.13 740.392C370.036 745.87 367.751 750.549 363.274 754.43C358.844 758.265 352.594 760.802 344.526 762.041C351.61 762.535 357.471 764.066 362.109 766.634C366.747 769.202 370.192 772.417 372.444 776.279C374.696 780.14 375.785 784.235 375.71 788.562C375.602 794.822 373.852 800.086 370.46 804.354C367.068 808.622 362.148 811.828 355.701 813.97C349.3 816.113 341.464 817.103 332.192 816.939L279.973 816.015ZM311.412 792.121L332.614 792.496C336.158 792.559 338.945 791.756 340.974 790.089C343.049 788.422 344.112 786.092 344.164 783.1C344.219 779.878 343.24 777.328 341.227 775.451C339.259 773.574 336.502 772.604 332.957 772.542L311.756 772.167L311.412 792.121ZM312.072 753.87L327.137 754.136C329.546 754.179 331.62 753.847 333.36 753.141C335.1 752.435 336.436 751.4 337.369 750.035C338.347 748.671 338.853 747.022 338.886 745.089C338.934 742.281 337.859 740.052 335.66 738.401C333.506 736.752 330.475 735.892 326.567 735.823L312.387 735.573L312.072 753.87Z" fill="black"/>
</svg>
