<svg width="217" height="41" viewBox="0 0 217 41" fill="none" xmlns="http://www.w3.org/2000/svg">
<path d="M8.10048 30.2978L2.9011 19.5584V30.2978H0V13.0173H2.5055L9.06123 26.4556L15.6358 13.0173H18.1413V30.2978H15.2402V19.5584L10.0408 30.2978H8.10048Z" fill="black"/>
<path d="M28.9075 21.6575C28.9075 22.5822 29.0519 23.4193 29.3408 24.169C29.6296 24.9187 30.0127 25.5685 30.4899 26.1182C30.9797 26.6555 31.5386 27.0678 32.1665 27.3552C32.7945 27.6551 33.4475 27.805 34.1257 27.805C34.7913 27.805 35.4381 27.6551 36.0661 27.3552C36.694 27.0553 37.2466 26.643 37.7238 26.1182C38.2011 25.5809 38.5904 24.9312 38.8918 24.169C39.1932 23.4193 39.3376 22.5822 39.3251 21.6575C39.3251 20.7329 39.1807 19.8958 38.8918 19.1461C38.5904 18.3964 38.2011 17.7529 37.7238 17.2156C37.2466 16.6783 36.694 16.2597 36.0661 15.9599C35.4381 15.66 34.7913 15.5163 34.1257 15.5288C33.4601 15.5288 32.807 15.6725 32.1665 15.9599C31.5386 16.2597 30.9797 16.6783 30.4899 17.2156C30.0001 17.7529 29.6171 18.3964 29.3408 19.1461C29.0519 19.8958 28.9075 20.7329 28.9075 21.6575ZM42.2262 21.6575C42.2262 22.957 42.0127 24.1503 41.5857 25.2373C41.1587 26.3119 40.581 27.2365 39.8526 28.0112C39.1241 28.7859 38.2639 29.3919 37.2717 29.8292C36.2796 30.2665 35.2309 30.4852 34.1257 30.4852C33.0205 30.4852 31.9719 30.2665 30.9797 29.8292C29.9876 29.3919 29.1273 28.7859 28.3989 28.0112C27.6704 27.2365 27.0865 26.3119 26.6469 25.2373C26.2199 24.1628 26.0127 22.9695 26.0252 21.6575C26.0252 20.3581 26.2325 19.1711 26.6469 18.0965C27.0739 17.0219 27.6579 16.0911 28.3989 15.3039C29.1273 14.5292 29.9876 13.9232 30.9797 13.4859C31.9719 13.0485 33.0205 12.8299 34.1257 12.8299C35.2309 12.8299 36.2796 13.0485 37.2717 13.4859C38.2639 13.9232 39.1241 14.5292 39.8526 15.3039C40.581 16.0786 41.1587 17.0094 41.5857 18.0965C42.0127 19.1711 42.2262 20.3581 42.2262 21.6575Z" fill="black"/>
<path d="M89.295 21.6575C89.295 22.5822 89.4394 23.4193 89.7283 24.169C90.0171 24.9187 90.4002 25.5685 90.8774 26.1182C91.3672 26.6555 91.9261 27.0678 92.554 27.3552C93.182 27.6551 93.835 27.805 94.5132 27.805C95.1788 27.805 95.8256 27.6551 96.4535 27.3552C97.0815 27.0553 97.6341 26.643 98.1113 26.1182C98.5886 25.5809 98.9779 24.9312 99.2793 24.169C99.5807 23.4193 99.7251 22.5822 99.7126 21.6575C99.7126 20.7329 99.5682 19.8958 99.2793 19.1461C98.9779 18.3964 98.5886 17.7529 98.1113 17.2156C97.6341 16.6783 97.0815 16.2597 96.4535 15.9599C95.8256 15.66 95.1788 15.5163 94.5132 15.5288C93.8476 15.5288 93.1945 15.6725 92.554 15.9599C91.9261 16.2597 91.3672 16.6783 90.8774 17.2156C90.3876 17.7529 90.0046 18.3964 89.7283 19.1461C89.4394 19.8958 89.295 20.7329 89.295 21.6575ZM102.614 21.6575C102.614 22.957 102.4 24.1503 101.973 25.2373C101.546 26.3119 100.968 27.2365 100.24 28.0112C99.5116 28.7859 98.6513 29.3919 97.6592 29.8292C96.667 30.2665 95.6184 30.4852 94.5132 30.4852C93.408 30.4852 92.3594 30.2665 91.3672 29.8292C90.375 29.3919 89.5148 28.7859 88.7863 28.0112C88.0579 27.2365 87.4739 26.3119 87.0344 25.2373C86.6074 24.1628 86.4002 22.9695 86.4127 21.6575C86.4127 20.3581 86.6199 19.1711 87.0344 18.0965C87.4614 17.0219 88.0454 16.0911 88.7863 15.3039C89.5148 14.5292 90.375 13.9232 91.3672 13.4859C92.3594 13.0485 93.408 12.8299 94.5132 12.8299C95.6184 12.8299 96.667 13.0485 97.6592 13.4859C98.6513 13.9232 99.5116 14.5292 100.24 15.3039C100.968 16.0786 101.546 17.0094 101.973 18.0965C102.4 19.1711 102.614 20.3581 102.614 21.6575Z" fill="black"/>
<path d="M149.379 13.0173V30.2978H146.478V15.5288H140.11L139.545 24.7313C139.42 26.568 138.886 27.9862 137.944 28.9858C137.002 29.9854 135.796 30.4852 134.327 30.4852C134.176 30.4852 134.032 30.479 133.894 30.4665C133.768 30.454 133.643 30.4352 133.517 30.4102C133.391 30.3852 133.278 30.3478 133.178 30.2978V27.805H133.555C135.439 27.805 136.468 26.7805 136.644 24.7313L137.605 13.0173H149.379Z" fill="black"/>
<path d="M125.367 0V17.2805H122.484V2.6989H113.611V17.2805H110.71V0H125.367Z" fill="black"/>
<path d="M175.124 36.2011C174.836 36.8134 174.471 37.4131 174.032 38.0004C173.592 38.5877 173.077 39.1 172.487 39.5373C171.897 39.9746 171.231 40.3307 170.49 40.6056C169.749 40.8805 168.914 41.0117 167.985 40.9992C166.879 40.9992 165.831 40.7805 164.839 40.3432C163.846 39.9059 162.986 39.2999 162.258 38.5252C161.529 37.7505 160.945 36.8259 160.506 35.7513C160.079 34.6768 159.872 33.4835 159.884 32.1715C159.884 30.8721 160.091 29.685 160.506 28.6105C160.933 27.5359 161.511 26.605 162.239 25.8179C162.955 25.0432 163.796 24.4372 164.763 23.9999C165.73 23.5625 166.741 23.3439 167.796 23.3439C168.851 23.3439 169.843 23.55 170.773 23.9624C171.715 24.3747 172.531 24.9557 173.222 25.7054C173.912 26.4551 174.465 27.3672 174.879 28.4418C175.294 29.5039 175.501 30.6846 175.501 31.9841C175.501 32.234 175.489 32.4527 175.463 32.6401C175.438 32.815 175.413 32.965 175.388 33.0899C175.363 33.2398 175.338 33.3835 175.313 33.521H162.974C163.024 34.1332 163.193 34.733 163.482 35.3202C163.784 35.9075 164.16 36.4198 164.613 36.8571C165.065 37.2944 165.586 37.6443 166.176 37.9067C166.766 38.1816 167.369 38.319 167.985 38.319C168.525 38.319 169.008 38.2441 169.435 38.0941C169.862 37.9442 170.245 37.763 170.584 37.5506C170.936 37.3507 171.225 37.1258 171.451 36.8759C171.677 36.6385 171.872 36.4136 172.035 36.2011H175.124ZM167.796 26.0428C167.206 26.0428 166.641 26.1677 166.101 26.4176C165.573 26.6675 165.096 27.0111 164.669 27.4484C164.23 27.8858 163.859 28.4106 163.558 29.0228C163.256 29.6351 163.062 30.3035 162.974 31.0282H172.412C172.211 29.4914 171.677 28.2731 170.81 27.3735C169.956 26.4863 168.952 26.0428 167.796 26.0428Z" fill="black"/>
<path d="M188.114 8.0188C187.448 8.0188 186.795 8.16249 186.155 8.44988C185.527 8.74975 184.968 9.16833 184.478 9.70562C183.988 10.2429 183.605 10.8864 183.329 11.6361C183.04 12.3858 182.896 13.2229 182.896 14.1476C182.896 15.0722 183.04 15.9093 183.329 16.659C183.618 17.4087 184.001 18.0585 184.478 18.6082C184.968 19.1455 185.527 19.5579 186.155 19.8452C186.783 20.1451 187.436 20.2951 188.114 20.2951C188.679 20.2951 189.213 20.1888 189.715 19.9764C190.217 19.7765 190.663 19.5079 191.053 19.1705C191.454 18.8331 191.8 18.4521 192.089 18.0272C192.378 17.5899 192.597 17.1276 192.748 16.6403H195.63C195.429 17.5149 195.109 18.3334 194.67 19.0955C194.23 19.8577 193.684 20.5325 193.031 21.1197C192.378 21.6945 191.63 22.1505 190.789 22.4879C189.947 22.8253 189.056 22.9877 188.114 22.9752C187.009 22.9752 185.96 22.7566 184.968 22.3192C183.976 21.8819 183.115 21.2759 182.387 20.5012C181.659 19.7265 181.075 18.8019 180.635 17.7274C180.208 16.6528 180.001 15.4595 180.013 14.1476C180.013 12.8481 180.221 11.6611 180.635 10.5865C181.062 9.51194 181.646 8.58107 182.387 7.79389C183.115 7.01921 183.976 6.41321 184.968 5.97588C185.96 5.53856 187.009 5.3199 188.114 5.3199C189.068 5.3199 189.96 5.48858 190.789 5.82594C191.63 6.16331 192.378 6.61312 193.031 7.17539C193.684 7.75016 194.23 8.42489 194.67 9.19957C195.109 9.96176 195.429 10.7802 195.63 11.6548H192.748C192.597 11.1675 192.378 10.7052 192.089 10.2679C191.8 9.83056 191.454 9.44947 191.053 9.1246C190.651 8.78724 190.205 8.5186 189.715 8.31868C189.213 8.11876 188.679 8.0188 188.114 8.0188Z" fill="black"/>
<path d="M206.206 40.8118H203.305V23.5313H206.206V40.8118ZM213.534 40.8118L206.206 31.7967L212.761 23.5313H216.039L209.484 31.5905L217 40.8118H213.534Z" fill="black"/>
<path d="M59.6182 21.4701C60.0829 21.72 60.4973 22.0261 60.8615 22.3885C61.1755 22.7009 61.4644 23.1007 61.7281 23.588C62.0044 24.0753 62.1426 24.6501 62.1426 25.3123C62.1426 26.0245 61.9981 26.693 61.7093 27.3177C61.433 27.9425 61.0374 28.4923 60.5225 28.9671C60.0075 29.4419 59.3796 29.8167 58.6386 30.0916C57.9102 30.354 57.0813 30.4852 56.152 30.4852C54.2179 30.4852 52.6983 29.9729 51.5931 28.9483C50.4879 27.9237 49.8851 26.6493 49.7846 25.1249H52.6857C52.7862 25.8871 53.119 26.5243 53.6841 27.0366C54.2493 27.5489 55.0719 27.805 56.152 27.805C57.1316 27.805 57.8914 27.5551 58.4314 27.0553C58.9714 26.5555 59.2415 25.9745 59.2415 25.3123C59.2415 24.6501 58.9652 24.0691 58.4126 23.5693C57.86 23.0695 57.1064 22.8196 56.152 22.8196H54.6072V20.1207H56.152C56.9181 20.1207 57.5586 19.9083 58.0735 19.4834C58.5884 19.0461 58.8459 18.4901 58.8459 17.8154C58.8459 17.1531 58.5884 16.6096 58.0735 16.1848C57.5711 15.7474 56.9306 15.5288 56.152 15.5288C55.0719 15.5288 54.2807 15.7787 53.7783 16.2785C53.276 16.7658 52.9746 17.3468 52.8741 18.0215H49.973C50.0735 16.4846 50.6449 15.2352 51.6873 14.273C52.7422 13.3109 54.2305 12.8299 56.152 12.8299C56.9809 12.8299 57.7344 12.9673 58.4126 13.2422C59.0907 13.5046 59.681 13.867 60.1834 14.3293C60.6857 14.7916 61.0688 15.3226 61.3325 15.9224C61.6088 16.5221 61.747 17.1531 61.747 17.8154C61.747 18.4526 61.6339 18.9961 61.4079 19.4459C61.1944 19.8958 60.9495 20.2769 60.6732 20.5892C60.3592 20.9516 60.0075 21.2452 59.6182 21.4701Z" fill="black"/>
<path d="M81.1388 15.7162H72.8499V30.2978H69.9488V13.0173H81.1388V15.7162Z" fill="black"/>
</svg>
